<mxfile host="app.diagrams.net" modified="2024-02-23T07:55:35.307Z" agent="5.0 (Windows NT 10.0; Win64; x64) AppleWebKit/537.36 (KHTML, like Gecko) Chrome/121.0.0.0 Safari/537.36" etag="P-v1c_TgiT3do_sOi41s" version="20.3.0" type="github">
  <diagram name="Page-1" id="efb738a8-7c80-c7f2-682c-5790327b83c8">
    <mxGraphModel dx="1422" dy="1628" grid="1" gridSize="10" guides="1" tooltips="1" connect="1" arrows="1" fold="1" page="1" pageScale="1" pageWidth="1100" pageHeight="850" background="#ffffff" math="0" shadow="0">
      <root>
        <mxCell id="0" />
        <mxCell id="1" parent="0" />
        <mxCell id="2714d821fc85a389-23" value="" style="ellipse;whiteSpace=wrap;html=1;rounded=1;shadow=0;comic=0;strokeColor=#82b366;strokeWidth=2;fillColor=#d5e8d4;fontSize=22;fontColor=#000000;opacity=40;" parent="1" vertex="1">
          <mxGeometry x="480" y="255" width="450" height="525" as="geometry" />
        </mxCell>
        <mxCell id="2714d821fc85a389-1" value="" style="ellipse;whiteSpace=wrap;html=1;rounded=1;shadow=0;comic=0;strokeColor=#d79b00;strokeWidth=2;fillColor=#ffe6cc;fontSize=22;fontColor=#000000;opacity=50;" parent="1" vertex="1">
          <mxGeometry x="220" y="120" width="450" height="390" as="geometry" />
        </mxCell>
        <mxCell id="2714d821fc85a389-3" value="" style="ellipse;whiteSpace=wrap;html=1;rounded=1;shadow=0;comic=0;strokeColor=#6c8ebf;strokeWidth=2;fillColor=#dae8fc;fontSize=22;fontColor=#000000;opacity=50;" parent="1" vertex="1">
          <mxGeometry x="500" y="-20" width="470" height="500" as="geometry" />
        </mxCell>
        <mxCell id="2714d821fc85a389-5" value="Borda&amp;nbsp;&lt;br&gt;Winner" style="text;html=1;strokeColor=none;fillColor=none;align=center;verticalAlign=middle;whiteSpace=wrap;rounded=1;shadow=0;comic=0;fontSize=28;fontColor=#000000;arcSize=0;fontStyle=1" parent="1" vertex="1">
          <mxGeometry x="360" y="300" width="40" height="20" as="geometry" />
        </mxCell>
        <mxCell id="2714d821fc85a389-6" value="von Neumann&lt;br&gt;Winner" style="text;html=1;resizable=0;points=[];autosize=1;align=left;verticalAlign=top;spacingTop=-4;fontSize=28;fontColor=#000000;fontStyle=1" parent="1" vertex="1">
          <mxGeometry x="640" y="50" width="210" height="70" as="geometry" />
        </mxCell>
        <mxCell id="2714d821fc85a389-24" value="Copeland Winner" style="text;html=1;strokeColor=none;fillColor=none;align=center;verticalAlign=middle;whiteSpace=wrap;rounded=1;shadow=0;comic=0;fontSize=28;fontColor=#000000;arcSize=50;fontStyle=1" parent="1" vertex="1">
          <mxGeometry x="670" y="640" width="40" height="50" as="geometry" />
        </mxCell>
        <mxCell id="169HLnV_-hAMDtXNexLC-1" value="" style="ellipse;whiteSpace=wrap;html=1;rounded=1;shadow=0;comic=0;strokeColor=#B20000;strokeWidth=2;fillColor=#e51400;fontSize=22;opacity=40;fontColor=#ffffff;" parent="1" vertex="1">
          <mxGeometry x="580" y="255" width="250" height="220" as="geometry" />
        </mxCell>
        <mxCell id="169HLnV_-hAMDtXNexLC-2" value="Condorcet&amp;nbsp;&lt;br&gt;Winner" style="text;html=1;strokeColor=none;fillColor=none;align=center;verticalAlign=middle;whiteSpace=wrap;rounded=1;shadow=0;comic=0;fontSize=28;fontColor=#000000;arcSize=50;fontStyle=1" parent="1" vertex="1">
          <mxGeometry x="685" y="355" width="40" height="20" as="geometry" />
        </mxCell>
      </root>
    </mxGraphModel>
  </diagram>
</mxfile>
